<svg width="25" height="24" viewBox="0 0 25 24" fill="none" xmlns="http://www.w3.org/2000/svg">
<path fill-rule="evenodd" clip-rule="evenodd" d="M4.22534 2H20.2253C21.3299 2 22.2253 2.89543 22.2253 4V20C22.2253 21.1046 21.3299 22 20.2253 22H4.22534C3.12077 22 2.22534 21.1046 2.22534 20V4C2.22534 2.89543 3.12077 2 4.22534 2ZM4.22534 4V20H20.2253V4H4.22534ZM11.3584 12.0044H13.2253V18H15.2253V12.0044H17.2078V10.0044H15.2253V9C15.2253 8.44772 15.6731 8 16.2253 8H17.2253V6H16.2253C14.5685 6 13.2253 7.34315 13.2253 9V10.0044H11.3584V12.0044Z" fill="white"/>
</svg>
