<svg width="25" height="25" viewBox="0 0 25 25" fill="none" xmlns="http://www.w3.org/2000/svg">
<path fill-rule="evenodd" clip-rule="evenodd" d="M16.4832 2.99707H8.48315C5.16945 2.99707 2.48315 5.68336 2.48315 8.99707V16.9971C2.48315 20.3108 5.16945 22.9971 8.48315 22.9971H16.4832C19.7969 22.9971 22.4832 20.3108 22.4832 16.9971V8.99707C22.4832 5.68336 19.7969 2.99707 16.4832 2.99707ZM4.48315 8.99707C4.48315 6.78793 6.27402 4.99707 8.48315 4.99707H16.4832C18.6923 4.99707 20.4832 6.78793 20.4832 8.99707V16.9971C20.4832 19.2062 18.6923 20.9971 16.4832 20.9971H8.48315C6.27402 20.9971 4.48315 19.2062 4.48315 16.9971V8.99707ZM12.4832 17.9971C9.72173 17.9971 7.48315 15.7585 7.48315 12.9971C7.48315 10.2356 9.72173 7.99707 12.4832 7.99707C15.2446 7.99707 17.4832 10.2356 17.4832 12.9971C17.4832 15.7585 15.2446 17.9971 12.4832 17.9971ZM12.4832 15.9971C14.14 15.9971 15.4832 14.6539 15.4832 12.9971C15.4832 11.3402 14.14 9.99707 12.4832 9.99707C10.8263 9.99707 9.48315 11.3402 9.48315 12.9971C9.48315 14.6539 10.8263 15.9971 12.4832 15.9971ZM18.4832 7.99707C18.4832 8.54936 18.0354 8.99707 17.4832 8.99707C16.9309 8.99707 16.4832 8.54936 16.4832 7.99707C16.4832 7.44479 16.9309 6.99707 17.4832 6.99707C18.0354 6.99707 18.4832 7.44479 18.4832 7.99707Z" fill="white"/>
</svg>
