<svg width="24" height="25" viewBox="0 0 24 25" fill="none" xmlns="http://www.w3.org/2000/svg">
<path fill-rule="evenodd" clip-rule="evenodd" d="M4 2.99023H20C21.1046 2.99023 22 3.88566 22 4.99023V20.9902C22 22.0948 21.1046 22.9902 20 22.9902H4C2.89543 22.9902 2 22.0948 2 20.9902V4.99023C2 3.88566 2.89543 2.99023 4 2.99023ZM4 4.99023V20.9902H20V4.99023H4ZM13 9.99023C12.4823 9.99023 11.9353 10.1485 11.4521 10.4424L11 9.99023H10V16.9902H12V12.9902C12 12.4145 12.594 11.9902 13 11.9902H14C14.406 11.9902 15 12.4145 15 12.9902V16.9902H17V12.9902C17 11.1374 15.394 9.99023 14 9.99023H13ZM8 8.99023C8.55228 8.99023 9 8.54252 9 7.99023C9 7.43795 8.55228 6.99023 8 6.99023C7.44772 6.99023 7 7.43795 7 7.99023C7 8.54252 7.44772 8.99023 8 8.99023ZM7 9.99023V16.9902H9V9.99023H7Z" fill="white"/>
</svg>
