<svg width="22" height="20" viewBox="0 0 22 20" fill="none" xmlns="http://www.w3.org/2000/svg">
<path fill-rule="evenodd" clip-rule="evenodd" d="M19.861 3.50144L21.2757 3.66666L20.6398 4.94116C20.3297 5.56269 20.0192 6.18422 19.7085 6.80574C19.6716 6.93738 19.6069 7.05278 19.5111 7.20304C19.4711 7.26582 19.3344 7.46552 19.328 7.47511C19.2919 7.52925 19.2652 7.57194 19.246 7.60615V9.99469C19.246 16.1067 13.331 19.9906 7.745 19.9906C6.60197 19.9906 5.73352 19.9358 4.7391 19.7188C3.1026 19.3617 1.88473 18.6518 1.32743 17.4112L0.753666 16.1338L2.14804 16.0056C3.40946 15.8896 4.50314 15.6493 5.34304 15.3275C3.03722 14.9567 1.74506 13.944 1.74506 12.042V11.042H2.74506C2.96477 11.042 3.16288 11.0242 3.34 10.9915C1.60946 9.95681 0.742677 8.29695 0.742677 5.99469C0.742488 5.89656 0.742488 5.89656 0.741898 5.79164C0.735397 4.63119 0.797727 4.01113 1.1154 3.21976C1.319 2.71257 1.61329 2.24305 2.00935 1.81283L2.76396 0.993164L3.49763 1.83163C5.91539 4.59477 8.3054 6.27112 10.7456 6.47388C10.7561 3.92421 12.683 1.99469 15.2458 1.99469C16.4405 1.99469 17.5243 2.44818 18.3759 3.26589C18.8421 3.36167 19.3371 3.44026 19.861 3.50144ZM17.6501 5.15518L17.3435 5.08576L17.1318 4.85344C16.6199 4.29171 15.9774 3.99469 15.2458 3.99469C13.7828 3.99469 12.7456 5.03707 12.7456 6.49469C12.7456 6.7329 12.7394 6.88258 12.7097 7.07931C12.5913 7.86433 12.151 8.49469 11.2456 8.49469C8.24752 8.49469 5.54281 6.88858 2.90535 4.14544C2.76938 4.55877 2.7374 4.98364 2.74187 5.78043C2.74247 5.887 2.74247 5.887 2.74268 5.99469C2.74268 8.04269 3.57239 9.16294 5.53692 9.78735L6.23401 10.0089V10.7404C6.23401 11.6274 5.39367 12.4623 4.16414 12.8363C4.72777 13.2639 5.88046 13.4947 7.74535 13.4947H8.74535V14.4947C8.74535 15.9274 7.09907 17.0492 4.6122 17.635C5.42324 17.8835 6.50311 17.9906 7.745 17.9906C12.3594 17.9906 17.246 14.782 17.246 9.99469V7.49469C17.246 7.2009 17.3311 6.9459 17.4726 6.68076C17.5279 6.57709 17.5888 6.47826 17.664 6.36554C17.6781 6.34432 17.7306 6.26743 17.7723 6.20596L17.8516 6.04745C17.98 5.79061 18.1084 5.53377 18.2367 5.27693C18.0373 5.23916 17.8417 5.19858 17.6501 5.15518Z" fill="white"/>
</svg>
